<svg width="80" height="64" viewBox="0 0 80 64" fill="none" xmlns="http://www.w3.org/2000/svg">
<path d="M15.3474 55.2856C13.4274 55.2856 11.6394 54.9616 9.98341 54.3136C8.35141 53.6656 6.93541 52.7656 5.73541 51.6136C4.53541 50.4376 3.59941 49.0696 2.92741 47.5096C2.25541 45.9496 1.91941 44.2456 1.91941 42.3976C1.91941 40.5496 2.25541 38.8456 2.92741 37.2856C3.59941 35.7256 4.53541 34.3696 5.73541 33.2176C6.93541 32.0416 8.35141 31.1296 9.98341 30.4816C11.6154 29.8336 13.4034 29.5096 15.3474 29.5096C17.2674 29.5096 19.0314 29.8336 20.6394 30.4816C22.2714 31.1056 23.6874 32.0056 24.8874 33.1816C26.1114 34.3336 27.0474 35.6896 27.6954 37.2496C28.3674 38.8096 28.7034 40.5256 28.7034 42.3976C28.7034 44.2696 28.3674 45.9856 27.6954 47.5456C27.0474 49.1056 26.1114 50.4736 24.8874 51.6496C23.6874 52.8016 22.2714 53.7016 20.6394 54.3496C19.0314 54.9736 17.2674 55.2856 15.3474 55.2856ZM15.3474 52.0816C16.7394 52.0816 18.0234 51.8416 19.1994 51.3616C20.3994 50.8816 21.4314 50.2096 22.2954 49.3456C23.1834 48.4576 23.8674 47.4256 24.3474 46.2496C24.8514 45.0736 25.1034 43.7896 25.1034 42.3976C25.1034 41.0056 24.8514 39.7216 24.3474 38.5456C23.8674 37.3696 23.1834 36.3496 22.2954 35.4856C21.4314 34.5976 20.3994 33.9136 19.1994 33.4336C18.0234 32.9536 16.7394 32.7136 15.3474 32.7136C13.9314 32.7136 12.6234 32.9536 11.4234 33.4336C10.2474 33.9136 9.21541 34.5976 8.32741 35.4856C7.43941 36.3496 6.74341 37.3696 6.23941 38.5456C5.75941 39.7216 5.51941 41.0056 5.51941 42.3976C5.51941 43.7896 5.75941 45.0736 6.23941 46.2496C6.74341 47.4256 7.43941 48.4576 8.32741 49.3456C9.21541 50.2096 10.2474 50.8816 11.4234 51.3616C12.6234 51.8416 13.9314 52.0816 15.3474 52.0816ZM34.2058 54.9976V29.7976H37.1578L48.4618 48.8416H46.8778L58.0378 29.7976H60.9898L61.0258 54.9976H57.5698L57.5338 35.2336H58.3618L48.4258 51.9376H46.7698L36.7618 35.2336H37.6618V54.9976H34.2058Z" fill="white"/>
<path d="M76.6783 19.6296L75.2649 19.1974C75.0688 19.1374 74.8618 19.1938 74.7294 19.3431C74.386 19.7307 74.0092 20.0992 73.6093 20.4384C70.6452 22.9534 66.9246 23.8122 62.85 22.923C58.7957 22.0384 56.9322 19.6917 54.353 16.4439C54.1686 16.2116 53.981 15.9753 53.7891 15.7355C53.7673 15.7081 53.7416 15.6721 53.7144 15.6341C53.6428 15.5341 53.5536 15.4096 53.4281 15.2868C53.2576 15.1198 53.0719 14.9644 52.8761 14.8247C52.4716 14.5361 52.2018 14.0818 52.1361 13.5781L51.7024 10.2564C51.6836 10.1124 51.6098 9.97934 51.4971 9.88633C51.3846 9.79327 51.2423 9.74793 51.1017 9.76036L48.9617 9.94859C48.6692 9.97422 48.4637 10.2382 48.5027 10.5379L48.9187 13.7241C48.9642 14.073 48.8514 14.4278 48.6092 14.6975C48.2393 15.1093 48.0509 15.6175 48.0642 16.1671C48.2326 23.1159 52.8916 28.2592 60.5271 29.9252C63.8224 30.6442 67.3266 30.2142 70.3941 28.7144C71.0115 28.4125 71.5957 28.0746 72.1441 27.7026C72.9085 27.1841 73.6034 26.5993 74.2215 25.9534C75.3264 24.7989 76.1295 23.506 76.6087 22.1107C76.8142 21.5121 76.971 20.8914 77.0744 20.2658C77.1203 19.9887 76.948 19.7121 76.6783 19.6296ZM49.6332 10.9873L50.7136 10.8923L51.0011 13.0941L50.5648 13.1047L49.9117 13.1207L49.6332 10.9873ZM71.5314 26.7869C68.5608 28.8015 64.5296 29.6953 60.7032 28.8604C53.613 27.3133 49.2877 22.5773 49.1329 16.1915C49.1246 15.8485 49.2808 15.6007 49.4132 15.4532C49.728 15.1026 49.9232 14.6682 49.9802 14.2099L51.1886 14.1804C51.3811 14.7936 51.7672 15.3337 52.2911 15.7073C52.4387 15.8127 52.5786 15.9296 52.7067 16.0551C52.7595 16.1067 52.8063 16.1723 52.8607 16.2482C52.8956 16.297 52.9317 16.3474 52.9729 16.399C53.1639 16.6381 53.3508 16.8733 53.5345 17.1046C56.1583 20.4087 58.2307 23.0184 62.6737 23.9879C64.9004 24.4738 67.0495 24.4725 69.0614 23.9841C70.8865 23.5411 72.5656 22.707 74.0574 21.5029L74.0933 21.5204L74.2848 21.6139C73.5154 22.809 72.5337 23.8044 71.3974 24.575C68.9006 26.2684 65.662 26.8788 62.3163 26.1487C57.1068 25.012 53.3962 22.2084 51.8678 18.2542C51.758 17.97 51.4468 17.8196 51.1728 17.9182C50.8987 18.0167 50.7657 18.3271 50.8755 18.6113C52.548 22.9385 56.5485 25.9935 62.1401 27.2135C64.8685 27.8089 67.5783 27.5921 69.9764 26.5865C70.7048 26.281 71.3903 25.9098 72.0272 25.4778C73.3342 24.5912 74.4353 23.4489 75.2776 22.0989L75.424 22.1705C74.6693 24.017 73.2854 25.5973 71.5314 26.7869ZM75.7706 21.1541L75.5521 21.0475L74.9213 20.7393C75.0568 20.6076 75.1891 20.473 75.3175 20.3359L75.9274 20.5224C75.8817 20.7345 75.8294 20.9454 75.7706 21.1541Z" fill="white"/>
</svg>
