<svg width="83" height="64" viewBox="0 0 83 64" fill="none" xmlns="http://www.w3.org/2000/svg">
<g filter="url(#filter0_d_31_270)">
<path d="M18.3474 55.2856C16.4274 55.2856 14.6394 54.9616 12.9834 54.3136C11.3514 53.6656 9.93541 52.7656 8.73541 51.6136C7.53541 50.4376 6.59941 49.0696 5.92741 47.5096C5.25541 45.9496 4.91941 44.2456 4.91941 42.3976C4.91941 40.5496 5.25541 38.8456 5.92741 37.2856C6.59941 35.7256 7.53541 34.3696 8.73541 33.2176C9.93541 32.0416 11.3514 31.1296 12.9834 30.4816C14.6154 29.8336 16.4034 29.5096 18.3474 29.5096C20.2674 29.5096 22.0314 29.8336 23.6394 30.4816C25.2714 31.1056 26.6874 32.0056 27.8874 33.1816C29.1114 34.3336 30.0474 35.6896 30.6954 37.2496C31.3674 38.8096 31.7034 40.5256 31.7034 42.3976C31.7034 44.2696 31.3674 45.9856 30.6954 47.5456C30.0474 49.1056 29.1114 50.4736 27.8874 51.6496C26.6874 52.8016 25.2714 53.7016 23.6394 54.3496C22.0314 54.9736 20.2674 55.2856 18.3474 55.2856ZM18.3474 52.0816C19.7394 52.0816 21.0234 51.8416 22.1994 51.3616C23.3994 50.8816 24.4314 50.2096 25.2954 49.3456C26.1834 48.4576 26.8674 47.4256 27.3474 46.2496C27.8514 45.0736 28.1034 43.7896 28.1034 42.3976C28.1034 41.0056 27.8514 39.7216 27.3474 38.5456C26.8674 37.3696 26.1834 36.3496 25.2954 35.4856C24.4314 34.5976 23.3994 33.9136 22.1994 33.4336C21.0234 32.9536 19.7394 32.7136 18.3474 32.7136C16.9314 32.7136 15.6234 32.9536 14.4234 33.4336C13.2474 33.9136 12.2154 34.5976 11.3274 35.4856C10.4394 36.3496 9.74341 37.3696 9.23941 38.5456C8.75941 39.7216 8.51941 41.0056 8.51941 42.3976C8.51941 43.7896 8.75941 45.0736 9.23941 46.2496C9.74341 47.4256 10.4394 48.4576 11.3274 49.3456C12.2154 50.2096 13.2474 50.8816 14.4234 51.3616C15.6234 51.8416 16.9314 52.0816 18.3474 52.0816ZM37.2058 54.9976V29.7976H40.1578L51.4618 48.8416H49.8778L61.0378 29.7976H63.9898L64.0258 54.9976H60.5698L60.5338 35.2336H61.3618L51.4258 51.9376H49.7698L39.7618 35.2336H40.6618V54.9976H37.2058Z" fill="#333333"/>
<path d="M12.9834 54.3136L12.7989 54.7783L12.8012 54.7792L12.9834 54.3136ZM8.73541 51.6136L8.38542 51.9707L8.38914 51.9743L8.73541 51.6136ZM5.92741 47.5096L6.38661 47.3117L6.38661 47.3117L5.92741 47.5096ZM5.92741 37.2856L6.38661 37.4834L6.38661 37.4834L5.92741 37.2856ZM8.73541 33.2176L9.08169 33.5783L9.08537 33.5747L8.73541 33.2176ZM12.9834 30.4816L12.7989 30.0168L12.7989 30.0168L12.9834 30.4816ZM23.6394 30.4816L23.4525 30.9454L23.4608 30.9486L23.6394 30.4816ZM27.8874 33.1816L27.5374 33.5387L27.5447 33.5457L27.8874 33.1816ZM30.6954 37.2496L30.2336 37.4414L30.2362 37.4474L30.6954 37.2496ZM30.6954 47.5456L30.2362 47.3477L30.2337 47.3538L30.6954 47.5456ZM27.8874 51.6496L28.2337 52.0103L28.2338 52.0101L27.8874 51.6496ZM23.6394 54.3496L23.8203 54.8157L23.8239 54.8143L23.6394 54.3496ZM22.1994 51.3616L22.0137 50.8973L22.0105 50.8986L22.1994 51.3616ZM25.2954 49.3456L25.649 49.6991L25.649 49.6991L25.2954 49.3456ZM27.3474 46.2496L26.8878 46.0526L26.8845 46.0606L27.3474 46.2496ZM27.3474 38.5456L26.8844 38.7345L26.8878 38.7425L27.3474 38.5456ZM25.2954 35.4856L24.9369 35.8344L24.9467 35.8439L25.2954 35.4856ZM22.1994 33.4336L22.0105 33.8965L22.0137 33.8978L22.1994 33.4336ZM14.4234 33.4336L14.2377 32.9693L14.2345 32.9706L14.4234 33.4336ZM11.3274 35.4856L11.6761 35.844L11.681 35.8391L11.3274 35.4856ZM9.23941 38.5456L8.77976 38.3486L8.77648 38.3566L9.23941 38.5456ZM9.23941 46.2496L8.77641 46.4385L8.77983 46.4465L9.23941 46.2496ZM11.3274 49.3456L10.9738 49.6991L10.9787 49.7039L11.3274 49.3456ZM14.4234 51.3616L14.2345 51.8245L14.2377 51.8258L14.4234 51.3616ZM18.3474 54.7856C16.4848 54.7856 14.7591 54.4715 13.1656 53.8479L12.8012 54.7792C14.5197 55.4517 16.3701 55.7856 18.3474 55.7856V54.7856ZM13.1679 53.8489C11.5927 53.2234 10.2324 52.3576 9.08167 51.2529L8.38914 51.9743C9.63838 53.1735 11.1101 54.1077 12.7989 54.7783L13.1679 53.8489ZM9.08537 51.2565C7.93231 50.1265 7.03319 48.8127 6.38661 47.3117L5.4682 47.7074C6.16563 49.3264 7.1385 50.7487 8.38544 51.9707L9.08537 51.2565ZM6.38661 47.3117C5.74382 45.8195 5.41941 44.1836 5.41941 42.3976H4.41941C4.41941 44.3075 4.767 46.0796 5.4682 47.7074L6.38661 47.3117ZM5.41941 42.3976C5.41941 40.6115 5.74382 38.9756 6.38661 37.4834L5.4682 37.0877C4.767 38.7155 4.41941 40.4876 4.41941 42.3976H5.41941ZM6.38661 37.4834C7.03278 35.9833 7.93084 34.683 9.08167 33.5783L8.38914 32.8569C7.13997 34.0561 6.16603 35.4678 5.4682 37.0877L6.38661 37.4834ZM9.08537 33.5747C10.2358 32.4473 11.5948 31.5709 13.1679 30.9463L12.7989 30.0168C11.108 30.6882 9.63503 31.6359 8.38544 32.8605L9.08537 33.5747ZM13.1679 30.9463C14.7352 30.324 16.4598 30.0096 18.3474 30.0096V29.0096C16.347 29.0096 14.4956 29.3432 12.7989 30.0168L13.1679 30.9463ZM18.3474 30.0096C20.2103 30.0096 21.91 30.3237 23.4525 30.9453L23.8263 30.0178C22.1528 29.3434 20.3246 29.0096 18.3474 29.0096V30.0096ZM23.4608 30.9486C25.0314 31.5491 26.3884 32.4126 27.5374 33.5387L28.2374 32.8245C26.9864 31.5985 25.5114 30.662 23.818 30.0145L23.4608 30.9486ZM27.5447 33.5457C28.7171 34.649 29.6126 35.9462 30.2337 37.4414L31.1572 37.0578C30.4822 35.4329 29.5058 34.0181 28.2301 32.8175L27.5447 33.5457ZM30.2362 37.4474C30.8787 38.9388 31.2034 40.5866 31.2034 42.3976H32.2034C32.2034 40.4645 31.8562 38.6803 31.1546 37.0517L30.2362 37.4474ZM31.2034 42.3976C31.2034 44.2085 30.8787 45.8563 30.2362 47.3477L31.1546 47.7434C31.8562 46.1148 32.2034 44.3306 32.2034 42.3976H31.2034ZM30.2337 47.3538C29.6122 48.8498 28.7156 50.1605 27.541 51.289L28.2338 52.0101C29.5072 50.7866 30.4826 49.3613 31.1572 47.7374L30.2337 47.3538ZM27.5411 51.2889C26.3904 52.3936 25.0301 53.2594 23.4549 53.8849L23.8239 54.8143C25.5127 54.1437 26.9844 53.2095 28.2337 52.0103L27.5411 51.2889ZM23.4585 53.8834C21.9144 54.4826 20.2125 54.7856 18.3474 54.7856V55.7856C20.3223 55.7856 22.1484 55.4645 23.8203 54.8157L23.4585 53.8834ZM18.3474 52.5816C19.798 52.5816 21.1469 52.3312 22.3884 51.8245L22.0105 50.8986C20.9 51.3519 19.6809 51.5816 18.3474 51.5816V52.5816ZM22.3851 51.8258C23.6443 51.3221 24.7343 50.6137 25.649 49.6991L24.9419 48.992C24.1285 49.8054 23.1545 50.441 22.0137 50.8973L22.3851 51.8258ZM25.649 49.6991C26.5846 48.7635 27.3055 47.6754 27.8103 46.4385L26.8845 46.0606C26.4293 47.1757 25.7823 48.1516 24.9419 48.992L25.649 49.6991ZM27.807 46.4465C28.3399 45.203 28.6034 43.8513 28.6034 42.3976H27.6034C27.6034 43.7279 27.3629 44.9441 26.8878 46.0526L27.807 46.4465ZM28.6034 42.3976C28.6034 40.9439 28.3399 39.5921 27.807 38.3486L26.8878 38.7425C27.3629 39.851 27.6034 41.0673 27.6034 42.3976H28.6034ZM27.8103 38.3566C27.305 37.1185 26.5827 36.0404 25.6441 35.1272L24.9467 35.8439C25.7841 36.6587 26.4298 37.6206 26.8845 38.7345L27.8103 38.3566ZM25.6538 35.1369C24.7388 34.1965 23.6472 33.4742 22.3851 32.9693L22.0137 33.8978C23.1516 34.3529 24.124 34.9986 24.937 35.8342L25.6538 35.1369ZM22.3884 32.9706C21.1469 32.4639 19.798 32.2136 18.3474 32.2136V33.2136C19.6809 33.2136 20.9 33.4432 22.0105 33.8965L22.3884 32.9706ZM18.3474 32.2136C16.8739 32.2136 15.5022 32.4635 14.2377 32.9693L14.6091 33.8978C15.7446 33.4436 16.9889 33.2136 18.3474 33.2136V32.2136ZM14.2345 32.9706C12.9976 33.4755 11.9094 34.1964 10.9739 35.132L11.681 35.8391C12.5214 34.9987 13.4972 34.3516 14.6124 33.8965L14.2345 32.9706ZM10.9787 35.1272C10.0419 36.0387 9.30893 37.114 8.77983 38.3486L9.69898 38.7425C10.1779 37.6251 10.8369 36.6604 11.6761 35.8439L10.9787 35.1272ZM8.77648 38.3566C8.26975 39.5981 8.01941 40.947 8.01941 42.3976H9.01941C9.01941 41.0641 9.24907 39.845 9.70233 38.7345L8.77648 38.3566ZM8.01941 42.3976C8.01941 43.8481 8.26975 45.197 8.77648 46.4385L9.70233 46.0606C9.24907 44.9501 9.01941 43.731 9.01941 42.3976H8.01941ZM8.77983 46.4465C9.30841 47.6799 10.04 48.7653 10.9739 49.6991L11.681 48.992C10.8388 48.1498 10.1784 47.1713 9.69898 46.0526L8.77983 46.4465ZM10.9787 49.7039C11.9139 50.6138 13.0005 51.3208 14.2345 51.8245L14.6124 50.8986C13.4943 50.4423 12.5169 49.8053 11.6761 48.9872L10.9787 49.7039ZM14.2377 51.8258C15.5022 52.3316 16.8739 52.5816 18.3474 52.5816V51.5816C16.9889 51.5816 15.7446 51.3515 14.6091 50.8973L14.2377 51.8258ZM37.2058 54.9976H36.7058V55.4976H37.2058V54.9976ZM37.2058 29.7976V29.2976H36.7058V29.7976H37.2058ZM40.1578 29.7976L40.5877 29.5423L40.4424 29.2976H40.1578V29.7976ZM51.4618 48.8416V49.3416H52.34L51.8917 48.5863L51.4618 48.8416ZM49.8778 48.8416L49.4464 48.5888L49.0052 49.3416H49.8778V48.8416ZM61.0378 29.7976V29.2976H60.7513L60.6064 29.5448L61.0378 29.7976ZM63.9898 29.7976L64.4898 29.7968L64.4891 29.2976H63.9898V29.7976ZM64.0258 54.9976V55.4976H64.5265L64.5258 54.9968L64.0258 54.9976ZM60.5698 54.9976L60.0698 54.9985L60.0707 55.4976H60.5698V54.9976ZM60.5338 35.2336V34.7336H60.0329L60.0338 35.2345L60.5338 35.2336ZM61.3618 35.2336L61.7915 35.4892L62.241 34.7336H61.3618V35.2336ZM51.4258 51.9376V52.4376H51.7101L51.8555 52.1932L51.4258 51.9376ZM49.7698 51.9376L49.3409 52.1945L49.4865 52.4376H49.7698V51.9376ZM39.7618 35.2336V34.7336H38.8793L39.3329 35.4905L39.7618 35.2336ZM40.6618 35.2336H41.1618V34.7336H40.6618V35.2336ZM40.6618 54.9976V55.4976H41.1618V54.9976H40.6618ZM37.7058 54.9976V29.7976H36.7058V54.9976H37.7058ZM37.2058 30.2976H40.1578V29.2976H37.2058V30.2976ZM39.7278 30.0528L51.0318 49.0968L51.8917 48.5863L40.5877 29.5423L39.7278 30.0528ZM51.4618 48.3416H49.8778V49.3416H51.4618V48.3416ZM50.3092 49.0944L61.4692 30.0504L60.6064 29.5448L49.4464 48.5888L50.3092 49.0944ZM61.0378 30.2976H63.9898V29.2976H61.0378V30.2976ZM63.4898 29.7983L63.5258 54.9983L64.5258 54.9968L64.4898 29.7968L63.4898 29.7983ZM64.0258 54.4976H60.5698V55.4976H64.0258V54.4976ZM61.0698 54.9966L61.0338 35.2326L60.0338 35.2345L60.0698 54.9985L61.0698 54.9966ZM60.5338 35.7336H61.3618V34.7336H60.5338V35.7336ZM60.9321 34.9779L50.9961 51.6819L51.8555 52.1932L61.7915 35.4892L60.9321 34.9779ZM51.4258 51.4376H49.7698V52.4376H51.4258V51.4376ZM50.1987 51.6806L40.1907 34.9766L39.3329 35.4905L49.3409 52.1945L50.1987 51.6806ZM39.7618 35.7336H40.6618V34.7336H39.7618V35.7336ZM40.1618 35.2336V54.9976H41.1618V35.2336H40.1618ZM40.6618 54.4976H37.2058V55.4976H40.6618V54.4976Z" fill="black"/>
</g>
<path d="M79.6783 19.6298L78.2649 19.1976C78.0688 19.1377 77.8618 19.1941 77.7294 19.3433C77.386 19.7309 77.0092 20.0994 76.6093 20.4387C73.6452 22.9537 69.9246 23.8125 65.85 22.9233C61.7957 22.0386 59.9322 19.692 57.353 16.4441C57.1686 16.2118 56.981 15.9756 56.7891 15.7357C56.7673 15.7083 56.7416 15.6724 56.7144 15.6344C56.6428 15.5343 56.5536 15.4098 56.4281 15.287C56.2576 15.1201 56.0719 14.9646 55.8761 14.825C55.4716 14.5364 55.2018 14.082 55.1361 13.5784L54.7024 10.2566C54.6836 10.1126 54.6098 9.97958 54.4971 9.88658C54.3846 9.79352 54.2423 9.74818 54.1017 9.76061L51.9617 9.94883C51.6692 9.97446 51.4637 10.2384 51.5027 10.5381L51.9187 13.7244C51.9642 14.0732 51.8514 14.428 51.6092 14.6977C51.2393 15.1095 51.0509 15.6178 51.0642 16.1673C51.2326 23.1161 55.8916 28.2594 63.5271 29.9255C66.8224 30.6445 70.3266 30.2145 73.3941 28.7146C74.0115 28.4127 74.5957 28.0749 75.1441 27.7029C75.9085 27.1844 76.6034 26.5995 77.2215 25.9536C78.3264 24.7991 79.1295 23.5062 79.6087 22.111C79.8142 21.5124 79.971 20.8917 80.0744 20.266C80.1203 19.989 79.948 19.7123 79.6783 19.6298ZM52.6332 10.9875L53.7136 10.8925L54.0011 13.0943L53.5648 13.105L52.9117 13.121L52.6332 10.9875ZM74.5314 26.7872C71.5608 28.8018 67.5296 29.6956 63.7032 28.8607C56.613 27.3135 52.2877 22.5775 52.1329 16.1918C52.1246 15.8488 52.2808 15.6009 52.4132 15.4535C52.728 15.1029 52.9232 14.6684 52.9802 14.2102L54.1886 14.1806C54.3811 14.7938 54.7672 15.3339 55.2911 15.7076C55.4387 15.8129 55.5786 15.9299 55.7067 16.0553C55.7595 16.107 55.8063 16.1726 55.8607 16.2485C55.8956 16.2973 55.9317 16.3477 55.9729 16.3992C56.1639 16.6383 56.3508 16.8735 56.5345 17.1049C59.1583 20.409 61.2307 23.0186 65.6737 23.9881C67.9004 24.474 70.0495 24.4727 72.0614 23.9844C73.8865 23.5414 75.5656 22.7073 77.0574 21.5031L77.0933 21.5206L77.2848 21.6142C76.5154 22.8093 75.5337 23.8047 74.3974 24.5753C71.9006 26.2686 68.662 26.879 65.3163 26.149C60.1068 25.0123 56.3962 22.2086 54.8678 18.2544C54.758 17.9702 54.4468 17.8198 54.1728 17.9184C53.8987 18.0169 53.7657 18.3273 53.8755 18.6116C55.548 22.9387 59.5485 25.9938 65.1401 27.2138C67.8685 27.8091 70.5783 27.5923 72.9764 26.5867C73.7048 26.2813 74.3903 25.9101 75.0272 25.478C76.3342 24.5915 77.4353 23.4491 78.2776 22.0992L78.424 22.1707C77.6693 24.0172 76.2854 25.5976 74.5314 26.7872ZM78.7706 21.1544L78.5521 21.0477L77.9213 20.7396C78.0568 20.6079 78.1891 20.4733 78.3175 20.3361L78.9274 20.5226C78.8817 20.7348 78.8294 20.9456 78.7706 21.1544Z" fill="black"/>
<defs>
<filter id="filter0_d_31_270" x="0.919403" y="29.5098" width="67.1064" height="33.7759" filterUnits="userSpaceOnUse" color-interpolation-filters="sRGB">
<feFlood flood-opacity="0" result="BackgroundImageFix"/>
<feColorMatrix in="SourceAlpha" type="matrix" values="0 0 0 0 0 0 0 0 0 0 0 0 0 0 0 0 0 0 127 0" result="hardAlpha"/>
<feOffset dy="4"/>
<feGaussianBlur stdDeviation="2"/>
<feComposite in2="hardAlpha" operator="out"/>
<feColorMatrix type="matrix" values="0 0 0 0 0 0 0 0 0 0 0 0 0 0 0 0 0 0 0.25 0"/>
<feBlend mode="normal" in2="BackgroundImageFix" result="effect1_dropShadow_31_270"/>
<feBlend mode="normal" in="SourceGraphic" in2="effect1_dropShadow_31_270" result="shape"/>
</filter>
</defs>
</svg>
